solid OpenSCAD_Model
  facet normal 1 -0 0
    outer loop
      vertex 37.3 -22 -3.5
      vertex 37.3 -9 -9
      vertex 37.3 -9 -3.5
    endloop
  endfacet
  facet normal 1 0 0
    outer loop
      vertex 37.3 -9 -9
      vertex 37.3 -22 -3.5
      vertex 37.3 -22 -9
    endloop
  endfacet
  facet normal 1 -0 0
    outer loop
      vertex 37.3 -22 9
      vertex 37.3 -9 3.5
      vertex 37.3 -9 9
    endloop
  endfacet
  facet normal 1 0 0
    outer loop
      vertex 37.3 -9 3.5
      vertex 37.3 -22 9
      vertex 37.3 -22 3.5
    endloop
  endfacet
  facet normal 1 0 0
    outer loop
      vertex 37.3 -9 9
      vertex 37.3 -3.5 11
      vertex 37.3 -9 11
    endloop
  endfacet
  facet normal 1 0 0
    outer loop
      vertex 37.3 -9 3.5
      vertex 37.3 -3.5 11
      vertex 37.3 -9 9
    endloop
  endfacet
  facet normal 1 0 0
    outer loop
      vertex 37.3 -3.5 11
      vertex 37.3 -9 3.5
      vertex 37.3 -3.5 -2
    endloop
  endfacet
  facet normal 1 0 0
    outer loop
      vertex 37.3 -3.5 -2
      vertex 37.3 -9 3.5
      vertex 37.3 -9 -2
    endloop
  endfacet
  facet normal 0 -1 0
    outer loop
      vertex 0 -9 9
      vertex 37.3 -9 11
      vertex 0 -9 11
    endloop
  endfacet
  facet normal 0 -1 -0
    outer loop
      vertex 37.3 -9 11
      vertex 0 -9 9
      vertex 37.3 -9 9
    endloop
  endfacet
  facet normal 0 -1 0
    outer loop
      vertex 7 -9 3
      vertex 7 -9 -2
      vertex 11 -9 3
    endloop
  endfacet
  facet normal 0 -1 0
    outer loop
      vertex 11 -9 6
      vertex 34.3 -9 3.5
      vertex 34.3 -9 6
    endloop
  endfacet
  facet normal 0 -1 0
    outer loop
      vertex 11 -9 3
      vertex 34.3 -9 3.5
      vertex 11 -9 6
    endloop
  endfacet
  facet normal 0 -1 0
    outer loop
      vertex 37.3 -9 -2
      vertex 34.3 -9 3.5
      vertex 11 -9 3
    endloop
  endfacet
  facet normal 0 -1 0
    outer loop
      vertex 37.3 -9 -2
      vertex 11 -9 3
      vertex 7 -9 -2
    endloop
  endfacet
  facet normal 0 -1 0
    outer loop
      vertex 34.3 -9 3.5
      vertex 37.3 -9 -2
      vertex 37.3 -9 3.5
    endloop
  endfacet
  facet normal 0 1 0
    outer loop
      vertex 37.3 -9 -3.5
      vertex 34.3 -9 -6
      vertex 34.3 -9 -3.5
    endloop
  endfacet
  facet normal 0 1 0
    outer loop
      vertex 34.3 -9 -6
      vertex 37.3 -9 -9
      vertex 11 -9 -6
    endloop
  endfacet
  facet normal 0 1 -0
    outer loop
      vertex 37.3 -9 -9
      vertex 34.3 -9 -6
      vertex 37.3 -9 -3.5
    endloop
  endfacet
  facet normal 0 1 0
    outer loop
      vertex 11 -9 -3
      vertex 11 -9 -6
      vertex 7 -9 -3
    endloop
  endfacet
  facet normal 0 1 -0
    outer loop
      vertex 7 -9 -3
      vertex 0 -9 -2
      vertex 7 -9 -2
    endloop
  endfacet
  facet normal 0 1 0
    outer loop
      vertex 0 -9 -9
      vertex 7 -9 -3
      vertex 11 -9 -6
    endloop
  endfacet
  facet normal 0 1 0
    outer loop
      vertex 7 -9 -3
      vertex 0 -9 -9
      vertex 0 -9 -2
    endloop
  endfacet
  facet normal 0 1 0
    outer loop
      vertex 0 -9 -9
      vertex 11 -9 -6
      vertex 37.3 -9 -9
    endloop
  endfacet
  facet normal 0 -1 0
    outer loop
      vertex 0 -22 9
      vertex 11 -22 6
      vertex 37.3 -22 9
    endloop
  endfacet
  facet normal 0 -1 0
    outer loop
      vertex 0 -22 9
      vertex 7 -22 3
      vertex 11 -22 6
    endloop
  endfacet
  facet normal 0 -1 0
    outer loop
      vertex 0 -22 9
      vertex 7 -22 -3
      vertex 7 -22 3
    endloop
  endfacet
  facet normal 0 -1 0
    outer loop
      vertex 7 -22 -3
      vertex 11 -22 -6
      vertex 11 -22 -3
    endloop
  endfacet
  facet normal 0 -1 0
    outer loop
      vertex 37.3 -22 -9
      vertex 11 -22 -6
      vertex 0 -22 -9
    endloop
  endfacet
  facet normal 0 -1 -0
    outer loop
      vertex 7 -22 -3
      vertex 0 -22 -9
      vertex 11 -22 -6
    endloop
  endfacet
  facet normal 0 -1 0
    outer loop
      vertex 0 -22 -9
      vertex 7 -22 -3
      vertex 0 -22 9
    endloop
  endfacet
  facet normal 0 -1 0
    outer loop
      vertex 34.3 -22 6
      vertex 37.3 -22 9
      vertex 11 -22 6
    endloop
  endfacet
  facet normal 0 -1 0
    outer loop
      vertex 37.3 -22 3.5
      vertex 34.3 -22 6
      vertex 34.3 -22 3.5
    endloop
  endfacet
  facet normal 0 -1 0
    outer loop
      vertex 34.3 -22 6
      vertex 37.3 -22 3.5
      vertex 37.3 -22 9
    endloop
  endfacet
  facet normal 0 -1 -0
    outer loop
      vertex 11 -22 6
      vertex 7 -22 3
      vertex 11 -22 3
    endloop
  endfacet
  facet normal 0 -1 0
    outer loop
      vertex 34.3 -22 -6
      vertex 37.3 -22 -3.5
      vertex 34.3 -22 -3.5
    endloop
  endfacet
  facet normal 0 -1 0
    outer loop
      vertex 34.3 -22 -6
      vertex 37.3 -22 -9
      vertex 37.3 -22 -3.5
    endloop
  endfacet
  facet normal 0 -1 0
    outer loop
      vertex 11 -22 -6
      vertex 37.3 -22 -9
      vertex 34.3 -22 -6
    endloop
  endfacet
  facet normal -1 0 0
    outer loop
      vertex 0 9 -2
      vertex 0 22 -9
      vertex 0 9 -9
    endloop
  endfacet
  facet normal -1 0 0
    outer loop
      vertex 0 22 -9
      vertex 0 9 -2
      vertex 0 22 9
    endloop
  endfacet
  facet normal -1 0 0
    outer loop
      vertex 0 9 -2
      vertex 0 9 9
      vertex 0 22 9
    endloop
  endfacet
  facet normal -1 0 0
    outer loop
      vertex 0 -9 9
      vertex 0 9 9
      vertex 0 9 -2
    endloop
  endfacet
  facet normal -1 0 0
    outer loop
      vertex 0 -9 9
      vertex 0 9 -2
      vertex 0 -9 -2
    endloop
  endfacet
  facet normal -1 0 0
    outer loop
      vertex 0 9 9
      vertex 0 -9 9
      vertex 0 9 11
    endloop
  endfacet
  facet normal -1 -0 0
    outer loop
      vertex 0 9 11
      vertex 0 -9 9
      vertex 0 -9 11
    endloop
  endfacet
  facet normal -1 0 0
    outer loop
      vertex 0 -22 -9
      vertex 0 -9 -2
      vertex 0 -9 -9
    endloop
  endfacet
  facet normal -1 0 0
    outer loop
      vertex 0 -22 9
      vertex 0 -9 -2
      vertex 0 -22 -9
    endloop
  endfacet
  facet normal -1 0 0
    outer loop
      vertex 0 -9 -2
      vertex 0 -22 9
      vertex 0 -9 9
    endloop
  endfacet
  facet normal 0 0 -1
    outer loop
      vertex 0 -22 -9
      vertex 37.3 -9 -9
      vertex 37.3 -22 -9
    endloop
  endfacet
  facet normal -0 0 -1
    outer loop
      vertex 37.3 -9 -9
      vertex 0 -22 -9
      vertex 0 -9 -9
    endloop
  endfacet
  facet normal -0 0 1
    outer loop
      vertex 0 -9 9
      vertex 37.3 -22 9
      vertex 37.3 -9 9
    endloop
  endfacet
  facet normal 0 0 1
    outer loop
      vertex 37.3 -22 9
      vertex 0 -9 9
      vertex 0 -22 9
    endloop
  endfacet
  facet normal -1 0 0
    outer loop
      vertex 34.3 -22 -6
      vertex 34.3 -9 -3.5
      vertex 34.3 -9 -6
    endloop
  endfacet
  facet normal -1 -0 0
    outer loop
      vertex 34.3 -9 -3.5
      vertex 34.3 -22 -6
      vertex 34.3 -22 -3.5
    endloop
  endfacet
  facet normal -1 0 0
    outer loop
      vertex 34.3 -22 3.5
      vertex 34.3 -9 6
      vertex 34.3 -9 3.5
    endloop
  endfacet
  facet normal -1 -0 0
    outer loop
      vertex 34.3 -9 6
      vertex 34.3 -22 3.5
      vertex 34.3 -22 6
    endloop
  endfacet
  facet normal 1 -0 0
    outer loop
      vertex 11 -22 -3
      vertex 11 -9 -6
      vertex 11 -9 -3
    endloop
  endfacet
  facet normal 1 0 0
    outer loop
      vertex 11 -9 -6
      vertex 11 -22 -3
      vertex 11 -22 -6
    endloop
  endfacet
  facet normal 1 -0 0
    outer loop
      vertex 11 -22 6
      vertex 11 -9 3
      vertex 11 -9 6
    endloop
  endfacet
  facet normal 1 0 0
    outer loop
      vertex 11 -9 3
      vertex 11 -22 6
      vertex 11 -22 3
    endloop
  endfacet
  facet normal -0 0 1
    outer loop
      vertex 11 -9 -6
      vertex 34.3 -22 -6
      vertex 34.3 -9 -6
    endloop
  endfacet
  facet normal 0 0 1
    outer loop
      vertex 34.3 -22 -6
      vertex 11 -9 -6
      vertex 11 -22 -6
    endloop
  endfacet
  facet normal 0 0 -1
    outer loop
      vertex 11 -22 6
      vertex 34.3 -9 6
      vertex 34.3 -22 6
    endloop
  endfacet
  facet normal -0 0 -1
    outer loop
      vertex 34.3 -9 6
      vertex 11 -22 6
      vertex 11 -9 6
    endloop
  endfacet
  facet normal -0 0 1
    outer loop
      vertex 34.3 -9 -3.5
      vertex 37.3 -22 -3.5
      vertex 37.3 -9 -3.5
    endloop
  endfacet
  facet normal 0 0 1
    outer loop
      vertex 37.3 -22 -3.5
      vertex 34.3 -9 -3.5
      vertex 34.3 -22 -3.5
    endloop
  endfacet
  facet normal 0 0 -1
    outer loop
      vertex 34.3 -22 3.5
      vertex 37.3 -9 3.5
      vertex 37.3 -22 3.5
    endloop
  endfacet
  facet normal -0 0 -1
    outer loop
      vertex 37.3 -9 3.5
      vertex 34.3 -22 3.5
      vertex 34.3 -9 3.5
    endloop
  endfacet
  facet normal 1 -0 0
    outer loop
      vertex 7 -22 3
      vertex 7 -9 -2
      vertex 7 -9 3
    endloop
  endfacet
  facet normal 1 0 0
    outer loop
      vertex 7 -22 -3
      vertex 7 -9 -2
      vertex 7 -22 3
    endloop
  endfacet
  facet normal 1 0 0
    outer loop
      vertex 7 -9 -2
      vertex 7 -22 -3
      vertex 7 -9 -3
    endloop
  endfacet
  facet normal -0 0 1
    outer loop
      vertex 7 -9 -3
      vertex 11 -22 -3
      vertex 11 -9 -3
    endloop
  endfacet
  facet normal 0 0 1
    outer loop
      vertex 11 -22 -3
      vertex 7 -9 -3
      vertex 7 -22 -3
    endloop
  endfacet
  facet normal 0 0 -1
    outer loop
      vertex 7 -22 3
      vertex 11 -9 3
      vertex 11 -22 3
    endloop
  endfacet
  facet normal -0 0 -1
    outer loop
      vertex 11 -9 3
      vertex 7 -22 3
      vertex 7 -9 3
    endloop
  endfacet
  facet normal 1 -0 0
    outer loop
      vertex 37.3 3.5 11
      vertex 37.3 9 9
      vertex 37.3 9 11
    endloop
  endfacet
  facet normal 1 0 0
    outer loop
      vertex 37.3 9 9
      vertex 37.3 3.5 11
      vertex 37.3 9 3.5
    endloop
  endfacet
  facet normal 1 0 0
    outer loop
      vertex 37.3 3.5 -2
      vertex 37.3 9 3.5
      vertex 37.3 3.5 11
    endloop
  endfacet
  facet normal 1 0 0
    outer loop
      vertex 37.3 9 3.5
      vertex 37.3 3.5 -2
      vertex 37.3 9 -2
    endloop
  endfacet
  facet normal 1 -0 0
    outer loop
      vertex 37.3 9 9
      vertex 37.3 22 3.5
      vertex 37.3 22 9
    endloop
  endfacet
  facet normal 1 0 0
    outer loop
      vertex 37.3 22 3.5
      vertex 37.3 9 9
      vertex 37.3 9 3.5
    endloop
  endfacet
  facet normal 0 0 1
    outer loop
      vertex 37.3 9 11
      vertex 34.3 6 11
      vertex 37.3 3.5 11
    endloop
  endfacet
  facet normal 0 0 1
    outer loop
      vertex 37.3 9 11
      vertex 11 6 11
      vertex 34.3 6 11
    endloop
  endfacet
  facet normal 0 0 1
    outer loop
      vertex 11 6 11
      vertex 7 3 11
      vertex 11 3 11
    endloop
  endfacet
  facet normal 0 0 1
    outer loop
      vertex 7 3 11
      vertex 0 9 11
      vertex 7 -3 11
    endloop
  endfacet
  facet normal 0 0 1
    outer loop
      vertex 11 6 11
      vertex 0 9 11
      vertex 7 3 11
    endloop
  endfacet
  facet normal -0 0 1
    outer loop
      vertex 0 9 11
      vertex 11 6 11
      vertex 37.3 9 11
    endloop
  endfacet
  facet normal 0 0 1
    outer loop
      vertex 37.3 3.5 11
      vertex 34.3 6 11
      vertex 34.3 3.5 11
    endloop
  endfacet
  facet normal 0 0 1
    outer loop
      vertex 11 -3 11
      vertex 7 -3 11
      vertex 11 -6 11
    endloop
  endfacet
  facet normal 0 0 1
    outer loop
      vertex 34.3 -6 11
      vertex 37.3 -3.5 11
      vertex 34.3 -3.5 11
    endloop
  endfacet
  facet normal 0 0 1
    outer loop
      vertex 37.3 -3.5 11
      vertex 34.3 -6 11
      vertex 37.3 -9 11
    endloop
  endfacet
  facet normal -0 0 1
    outer loop
      vertex 11 -6 11
      vertex 37.3 -9 11
      vertex 34.3 -6 11
    endloop
  endfacet
  facet normal 0 0 1
    outer loop
      vertex 11 -6 11
      vertex 0 -9 11
      vertex 37.3 -9 11
    endloop
  endfacet
  facet normal 0 0 1
    outer loop
      vertex 7 -3 11
      vertex 0 -9 11
      vertex 11 -6 11
    endloop
  endfacet
  facet normal 0 0 1
    outer loop
      vertex 0 -9 11
      vertex 7 -3 11
      vertex 0 9 11
    endloop
  endfacet
  facet normal 0 0 -1
    outer loop
      vertex 11 3 -2
      vertex 7 3 -2
      vertex 11 6 -2
    endloop
  endfacet
  facet normal 0 0 -1
    outer loop
      vertex 34.3 6 -2
      vertex 37.3 3.5 -2
      vertex 34.3 3.5 -2
    endloop
  endfacet
  facet normal 0 0 -1
    outer loop
      vertex 37.3 3.5 -2
      vertex 34.3 6 -2
      vertex 37.3 9 -2
    endloop
  endfacet
  facet normal 0 0 -1
    outer loop
      vertex 11 6 -2
      vertex 37.3 9 -2
      vertex 34.3 6 -2
    endloop
  endfacet
  facet normal 0 0 -1
    outer loop
      vertex 11 6 -2
      vertex 7 9 -2
      vertex 37.3 9 -2
    endloop
  endfacet
  facet normal 0 0 -1
    outer loop
      vertex 7 9 -2
      vertex 11 6 -2
      vertex 7 3 -2
    endloop
  endfacet
  facet normal 0 0 -1
    outer loop
      vertex 37.3 -9 -2
      vertex 34.3 -6 -2
      vertex 37.3 -3.5 -2
    endloop
  endfacet
  facet normal 0 0 -1
    outer loop
      vertex 37.3 -9 -2
      vertex 11 -6 -2
      vertex 34.3 -6 -2
    endloop
  endfacet
  facet normal 0 0 -1
    outer loop
      vertex 7 -9 -2
      vertex 11 -6 -2
      vertex 37.3 -9 -2
    endloop
  endfacet
  facet normal 0 0 -1
    outer loop
      vertex 7 -3 -2
      vertex 11 -6 -2
      vertex 7 -9 -2
    endloop
  endfacet
  facet normal 0 0 -1
    outer loop
      vertex 11 -6 -2
      vertex 7 -3 -2
      vertex 11 -3 -2
    endloop
  endfacet
  facet normal 0 0 -1
    outer loop
      vertex 0 -9 -2
      vertex 7 -3 -2
      vertex 7 -9 -2
    endloop
  endfacet
  facet normal -0 0 -1
    outer loop
      vertex 7 -3 -2
      vertex 0 -9 -2
      vertex 7 3 -2
    endloop
  endfacet
  facet normal 0 0 -1
    outer loop
      vertex 0 9 -2
      vertex 7 3 -2
      vertex 0 -9 -2
    endloop
  endfacet
  facet normal 0 0 -1
    outer loop
      vertex 7 3 -2
      vertex 0 9 -2
      vertex 7 9 -2
    endloop
  endfacet
  facet normal -0 0 -1
    outer loop
      vertex 37.3 -3.5 -2
      vertex 34.3 -6 -2
      vertex 34.3 -3.5 -2
    endloop
  endfacet
  facet normal 0 1 -0
    outer loop
      vertex 37.3 9 9
      vertex 0 9 11
      vertex 37.3 9 11
    endloop
  endfacet
  facet normal 0 1 0
    outer loop
      vertex 0 9 11
      vertex 37.3 9 9
      vertex 0 9 9
    endloop
  endfacet
  facet normal 0 -1 0
    outer loop
      vertex 0 9 -2
      vertex 7 9 -3
      vertex 7 9 -2
    endloop
  endfacet
  facet normal 0 -1 0
    outer loop
      vertex 7 9 -3
      vertex 11 9 -6
      vertex 11 9 -3
    endloop
  endfacet
  facet normal 0 -1 0
    outer loop
      vertex 0 9 -9
      vertex 7 9 -3
      vertex 0 9 -2
    endloop
  endfacet
  facet normal 0 -1 0
    outer loop
      vertex 37.3 9 -9
      vertex 11 9 -6
      vertex 0 9 -9
    endloop
  endfacet
  facet normal 0 -1 -0
    outer loop
      vertex 7 9 -3
      vertex 0 9 -9
      vertex 11 9 -6
    endloop
  endfacet
  facet normal 0 -1 0
    outer loop
      vertex 34.3 9 -6
      vertex 37.3 9 -3.5
      vertex 34.3 9 -3.5
    endloop
  endfacet
  facet normal 0 -1 0
    outer loop
      vertex 34.3 9 -6
      vertex 37.3 9 -9
      vertex 37.3 9 -3.5
    endloop
  endfacet
  facet normal 0 -1 0
    outer loop
      vertex 11 9 -6
      vertex 37.3 9 -9
      vertex 34.3 9 -6
    endloop
  endfacet
  facet normal 0 1 -0
    outer loop
      vertex 37.3 9 -2
      vertex 34.3 9 3.5
      vertex 37.3 9 3.5
    endloop
  endfacet
  facet normal 0 1 0
    outer loop
      vertex 34.3 9 3.5
      vertex 37.3 9 -2
      vertex 11 9 3
    endloop
  endfacet
  facet normal 0 1 0
    outer loop
      vertex 7 9 -2
      vertex 11 9 3
      vertex 37.3 9 -2
    endloop
  endfacet
  facet normal 0 1 0
    outer loop
      vertex 11 9 3
      vertex 7 9 -2
      vertex 7 9 3
    endloop
  endfacet
  facet normal 0 1 -0
    outer loop
      vertex 34.3 9 3.5
      vertex 11 9 6
      vertex 34.3 9 6
    endloop
  endfacet
  facet normal 0 1 0
    outer loop
      vertex 11 9 6
      vertex 34.3 9 3.5
      vertex 11 9 3
    endloop
  endfacet
  facet normal -1 0 0
    outer loop
      vertex 34.3 3.5 -2
      vertex 34.3 6 11
      vertex 34.3 6 -2
    endloop
  endfacet
  facet normal -1 -0 0
    outer loop
      vertex 34.3 6 11
      vertex 34.3 3.5 -2
      vertex 34.3 3.5 11
    endloop
  endfacet
  facet normal -1 0 0
    outer loop
      vertex 34.3 -6 -2
      vertex 34.3 -3.5 11
      vertex 34.3 -3.5 -2
    endloop
  endfacet
  facet normal -1 -0 0
    outer loop
      vertex 34.3 -3.5 11
      vertex 34.3 -6 -2
      vertex 34.3 -6 11
    endloop
  endfacet
  facet normal 1 -0 0
    outer loop
      vertex 11 3 11
      vertex 11 6 -2
      vertex 11 6 11
    endloop
  endfacet
  facet normal 1 0 0
    outer loop
      vertex 11 6 -2
      vertex 11 3 11
      vertex 11 3 -2
    endloop
  endfacet
  facet normal 1 -0 0
    outer loop
      vertex 11 -6 11
      vertex 11 -3 -2
      vertex 11 -3 11
    endloop
  endfacet
  facet normal 1 0 0
    outer loop
      vertex 11 -3 -2
      vertex 11 -6 11
      vertex 11 -6 -2
    endloop
  endfacet
  facet normal 0 -1 0
    outer loop
      vertex 11 6 -2
      vertex 34.3 6 11
      vertex 11 6 11
    endloop
  endfacet
  facet normal 0 -1 -0
    outer loop
      vertex 34.3 6 11
      vertex 11 6 -2
      vertex 34.3 6 -2
    endloop
  endfacet
  facet normal 0 1 -0
    outer loop
      vertex 34.3 -6 -2
      vertex 11 -6 11
      vertex 34.3 -6 11
    endloop
  endfacet
  facet normal 0 1 0
    outer loop
      vertex 11 -6 11
      vertex 34.3 -6 -2
      vertex 11 -6 -2
    endloop
  endfacet
  facet normal 0 -1 0
    outer loop
      vertex 34.3 3.5 -2
      vertex 37.3 3.5 11
      vertex 34.3 3.5 11
    endloop
  endfacet
  facet normal 0 -1 -0
    outer loop
      vertex 37.3 3.5 11
      vertex 34.3 3.5 -2
      vertex 37.3 3.5 -2
    endloop
  endfacet
  facet normal 0 1 -0
    outer loop
      vertex 37.3 -3.5 -2
      vertex 34.3 -3.5 11
      vertex 37.3 -3.5 11
    endloop
  endfacet
  facet normal 0 1 0
    outer loop
      vertex 34.3 -3.5 11
      vertex 37.3 -3.5 -2
      vertex 34.3 -3.5 -2
    endloop
  endfacet
  facet normal 1 -0 0
    outer loop
      vertex 7 -3 11
      vertex 7 3 -2
      vertex 7 3 11
    endloop
  endfacet
  facet normal 1 0 0
    outer loop
      vertex 7 3 -2
      vertex 7 -3 11
      vertex 7 -3 -2
    endloop
  endfacet
  facet normal 0 -1 0
    outer loop
      vertex 7 3 -2
      vertex 11 3 11
      vertex 7 3 11
    endloop
  endfacet
  facet normal 0 -1 -0
    outer loop
      vertex 11 3 11
      vertex 7 3 -2
      vertex 11 3 -2
    endloop
  endfacet
  facet normal 0 1 -0
    outer loop
      vertex 11 -3 -2
      vertex 7 -3 11
      vertex 11 -3 11
    endloop
  endfacet
  facet normal 0 1 0
    outer loop
      vertex 7 -3 11
      vertex 11 -3 -2
      vertex 7 -3 -2
    endloop
  endfacet
  facet normal 1 -0 0
    outer loop
      vertex 37.3 9 -3.5
      vertex 37.3 22 -9
      vertex 37.3 22 -3.5
    endloop
  endfacet
  facet normal 1 0 0
    outer loop
      vertex 37.3 22 -9
      vertex 37.3 9 -3.5
      vertex 37.3 9 -9
    endloop
  endfacet
  facet normal 0 1 0
    outer loop
      vertex 37.3 22 -3.5
      vertex 34.3 22 -6
      vertex 34.3 22 -3.5
    endloop
  endfacet
  facet normal 0 1 0
    outer loop
      vertex 34.3 22 -6
      vertex 37.3 22 -9
      vertex 11 22 -6
    endloop
  endfacet
  facet normal 0 1 -0
    outer loop
      vertex 37.3 22 -9
      vertex 34.3 22 -6
      vertex 37.3 22 -3.5
    endloop
  endfacet
  facet normal 0 1 0
    outer loop
      vertex 11 22 -3
      vertex 11 22 -6
      vertex 7 22 -3
    endloop
  endfacet
  facet normal 0 1 0
    outer loop
      vertex 11 22 6
      vertex 37.3 22 9
      vertex 34.3 22 6
    endloop
  endfacet
  facet normal 0 1 -0
    outer loop
      vertex 37.3 22 3.5
      vertex 34.3 22 6
      vertex 37.3 22 9
    endloop
  endfacet
  facet normal 0 1 0
    outer loop
      vertex 34.3 22 6
      vertex 37.3 22 3.5
      vertex 34.3 22 3.5
    endloop
  endfacet
  facet normal 0 1 0
    outer loop
      vertex 37.3 22 9
      vertex 11 22 6
      vertex 0 22 9
    endloop
  endfacet
  facet normal 0 1 0
    outer loop
      vertex 7 22 3
      vertex 11 22 6
      vertex 11 22 3
    endloop
  endfacet
  facet normal 0 1 0
    outer loop
      vertex 11 22 6
      vertex 7 22 3
      vertex 0 22 9
    endloop
  endfacet
  facet normal 0 1 -0
    outer loop
      vertex 7 22 -3
      vertex 0 22 9
      vertex 7 22 3
    endloop
  endfacet
  facet normal 0 1 0
    outer loop
      vertex 7 22 -3
      vertex 0 22 -9
      vertex 0 22 9
    endloop
  endfacet
  facet normal 0 1 0
    outer loop
      vertex 11 22 -6
      vertex 0 22 -9
      vertex 7 22 -3
    endloop
  endfacet
  facet normal 0 1 0
    outer loop
      vertex 0 22 -9
      vertex 11 22 -6
      vertex 37.3 22 -9
    endloop
  endfacet
  facet normal -0 0 1
    outer loop
      vertex 0 22 9
      vertex 37.3 9 9
      vertex 37.3 22 9
    endloop
  endfacet
  facet normal 0 0 1
    outer loop
      vertex 37.3 9 9
      vertex 0 22 9
      vertex 0 9 9
    endloop
  endfacet
  facet normal 0 0 -1
    outer loop
      vertex 0 9 -9
      vertex 37.3 22 -9
      vertex 37.3 9 -9
    endloop
  endfacet
  facet normal -0 0 -1
    outer loop
      vertex 37.3 22 -9
      vertex 0 9 -9
      vertex 0 22 -9
    endloop
  endfacet
  facet normal -1 0 0
    outer loop
      vertex 34.3 9 3.5
      vertex 34.3 22 6
      vertex 34.3 22 3.5
    endloop
  endfacet
  facet normal -1 -0 0
    outer loop
      vertex 34.3 22 6
      vertex 34.3 9 3.5
      vertex 34.3 9 6
    endloop
  endfacet
  facet normal -1 0 0
    outer loop
      vertex 34.3 9 -6
      vertex 34.3 22 -3.5
      vertex 34.3 22 -6
    endloop
  endfacet
  facet normal -1 -0 0
    outer loop
      vertex 34.3 22 -3.5
      vertex 34.3 9 -6
      vertex 34.3 9 -3.5
    endloop
  endfacet
  facet normal 1 -0 0
    outer loop
      vertex 11 9 6
      vertex 11 22 3
      vertex 11 22 6
    endloop
  endfacet
  facet normal 1 0 0
    outer loop
      vertex 11 22 3
      vertex 11 9 6
      vertex 11 9 3
    endloop
  endfacet
  facet normal 1 -0 0
    outer loop
      vertex 11 9 -3
      vertex 11 22 -6
      vertex 11 22 -3
    endloop
  endfacet
  facet normal 1 0 0
    outer loop
      vertex 11 22 -6
      vertex 11 9 -3
      vertex 11 9 -6
    endloop
  endfacet
  facet normal 0 0 -1
    outer loop
      vertex 11 9 6
      vertex 34.3 22 6
      vertex 34.3 9 6
    endloop
  endfacet
  facet normal -0 0 -1
    outer loop
      vertex 34.3 22 6
      vertex 11 9 6
      vertex 11 22 6
    endloop
  endfacet
  facet normal -0 0 1
    outer loop
      vertex 11 22 -6
      vertex 34.3 9 -6
      vertex 34.3 22 -6
    endloop
  endfacet
  facet normal 0 0 1
    outer loop
      vertex 34.3 9 -6
      vertex 11 22 -6
      vertex 11 9 -6
    endloop
  endfacet
  facet normal 0 0 -1
    outer loop
      vertex 34.3 9 3.5
      vertex 37.3 22 3.5
      vertex 37.3 9 3.5
    endloop
  endfacet
  facet normal -0 0 -1
    outer loop
      vertex 37.3 22 3.5
      vertex 34.3 9 3.5
      vertex 34.3 22 3.5
    endloop
  endfacet
  facet normal -0 0 1
    outer loop
      vertex 34.3 22 -3.5
      vertex 37.3 9 -3.5
      vertex 37.3 22 -3.5
    endloop
  endfacet
  facet normal 0 0 1
    outer loop
      vertex 37.3 9 -3.5
      vertex 34.3 22 -3.5
      vertex 34.3 9 -3.5
    endloop
  endfacet
  facet normal 1 0 0
    outer loop
      vertex 7 9 -2
      vertex 7 22 3
      vertex 7 9 3
    endloop
  endfacet
  facet normal 1 0 0
    outer loop
      vertex 7 22 3
      vertex 7 9 -2
      vertex 7 22 -3
    endloop
  endfacet
  facet normal 1 0 0
    outer loop
      vertex 7 22 -3
      vertex 7 9 -2
      vertex 7 9 -3
    endloop
  endfacet
  facet normal 0 0 -1
    outer loop
      vertex 7 9 3
      vertex 11 22 3
      vertex 11 9 3
    endloop
  endfacet
  facet normal -0 0 -1
    outer loop
      vertex 11 22 3
      vertex 7 9 3
      vertex 7 22 3
    endloop
  endfacet
  facet normal -0 0 1
    outer loop
      vertex 7 22 -3
      vertex 11 9 -3
      vertex 11 22 -3
    endloop
  endfacet
  facet normal 0 0 1
    outer loop
      vertex 11 9 -3
      vertex 7 22 -3
      vertex 7 9 -3
    endloop
  endfacet
endsolid OpenSCAD_Model
